<?xml version="1.0" standalone="no"?>
<!DOCTYPE svg PUBLIC "-//W3C//DTD SVG 20010904//EN"
 "http://www.w3.org/TR/2001/REC-SVG-20010904/DTD/svg10.dtd">
<svg version="1.0" xmlns="http://www.w3.org/2000/svg"
 width="1402.000000pt" height="1173.000000pt" viewBox="0 0 1402.000000 1173.000000"
 preserveAspectRatio="xMidYMid meet">

<g transform="translate(0.000000,1173.000000) scale(0.100000,-0.100000)"
fill="#000000" stroke="none">
<path d="M3450 8199 c-30 -4 -98 -13 -150 -18 -225 -25 -328 -53 -383 -105 -6
-6 -39 -34 -72 -61 -80 -67 -124 -106 -147 -129 -16 -18 -18 -40 -18 -253 l0
-233 23 0 c12 0 33 9 47 20 14 11 30 20 35 20 6 0 22 6 37 14 15 8 42 17 60
21 18 4 38 11 43 15 29 21 276 32 380 16 47 -8 116 -27 160 -45 46 -18 160
-75 165 -81 3 -4 25 -20 50 -35 41 -26 123 -103 177 -168 45 -54 133 -207 133
-232 0 -8 4 -23 9 -33 35 -65 43 -116 43 -270 1 -150 -13 -255 -41 -317 -5
-11 -22 -49 -38 -85 -16 -36 -28 -71 -25 -78 3 -9 50 -12 185 -13 196 -1 324
-10 372 -27 17 -6 48 -16 70 -22 121 -37 332 -220 393 -340 17 -36 32 -72 32
-81 0 -8 4 -19 8 -25 15 -17 36 -147 36 -224 0 -80 -21 -207 -35 -216 -5 -3
-9 -14 -9 -25 0 -49 -143 -268 -197 -302 -7 -5 -21 -16 -31 -25 -63 -64 -249
-151 -322 -152 -38 -1 -124 -26 -127 -37 -2 -5 3 -16 12 -23 8 -7 15 -18 15
-24 0 -7 16 -39 36 -72 20 -32 51 -87 69 -121 65 -123 140 -235 162 -246 19
-8 41 -1 135 48 111 56 213 118 220 132 1 5 28 27 58 50 78 59 226 217 256
272 13 25 49 80 79 121 54 76 179 284 222 373 13 26 33 82 46 125 21 73 22 94
22 427 0 256 -4 366 -13 410 -14 61 -89 231 -151 340 -18 33 -60 111 -93 173
-33 62 -73 136 -89 163 -16 27 -29 54 -29 60 0 45 -243 412 -454 684 -82 106
-141 170 -331 360 -241 240 -253 248 -440 267 -131 13 -525 18 -595 7z"/>
<path d="M6328 8123 c-40 -42 -48 -74 -48 -188 0 -57 -3 -110 -6 -119 -5 -13
-26 -16 -125 -16 -133 0 -174 -12 -203 -61 -35 -59 -15 -138 44 -173 22 -12
55 -16 147 -16 79 0 123 -4 131 -12 8 -8 12 -48 12 -112 0 -102 12 -170 33
-191 54 -52 112 -59 164 -19 49 37 57 63 63 204 l5 125 131 3 c126 2 132 3
164 30 68 57 67 145 -2 194 -29 20 -47 24 -163 28 l-130 5 -5 125 c-6 140 -10
154 -54 192 -25 23 -41 28 -82 28 -42 0 -55 -5 -76 -27z"/>
<path d="M2184 7443 c-33 -26 -95 -73 -138 -103 -120 -86 -274 -209 -290 -232
-8 -11 -44 -51 -79 -87 -172 -177 -230 -261 -283 -414 -27 -78 -100 -352 -115
-432 -44 -233 -52 -308 -53 -455 0 -307 57 -391 334 -483 123 -41 323 -46 462
-11 66 16 221 67 273 90 17 7 62 26 102 43 39 17 78 31 85 31 8 0 18 4 23 8
10 9 152 69 195 83 14 4 50 17 80 29 30 12 71 26 90 30 225 54 296 61 416 40
231 -41 412 -148 639 -378 l80 -81 135 -4 c203 -5 313 24 381 100 61 70 101
195 80 253 -6 18 -11 41 -11 51 0 33 -60 117 -109 153 -92 68 -67 66 -776 66
-589 1 -646 3 -720 20 -124 29 -146 35 -207 64 -31 14 -63 26 -70 26 -15 0
-73 34 -103 60 -91 79 -143 133 -181 188 -24 34 -44 67 -44 72 0 6 -4 10 -10
10 -5 0 -10 4 -10 9 0 5 -13 38 -29 73 -16 35 -34 81 -40 103 -5 22 -16 60
-22 85 -9 32 -14 194 -18 543 l-6 499 -61 -49z"/>
<path d="M3075 7080 c-49 -9 -83 -20 -156 -53 -56 -25 -151 -127 -185 -199
-45 -92 -61 -192 -45 -276 18 -92 63 -183 127 -251 51 -55 101 -87 198 -126
53 -21 221 -21 278 1 59 22 108 46 131 64 45 35 117 114 132 145 8 19 20 37
25 40 6 3 10 19 10 34 0 15 6 33 13 40 17 17 16 236 -1 253 -7 7 -12 22 -12
34 0 13 -4 26 -10 29 -5 3 -17 22 -27 43 -22 45 -104 131 -158 164 -81 49
-221 75 -320 58z"/>
<path d="M11615 6926 c-55 -20 -75 -59 -56 -109 20 -53 51 -57 401 -57 307 0
350 -2 350 -21 0 -16 -66 -76 -110 -101 -48 -27 -52 -27 -117 3 -24 10 -46 19
-50 19 -5 0 -21 7 -38 16 -17 9 -57 16 -95 17 -54 1 -71 -3 -98 -23 -61 -45
-33 -90 96 -155 98 -49 95 -65 -10 -66 -46 -1 -100 -1 -121 0 -20 2 -68 -2
-106 -9 -72 -12 -105 -33 -121 -76 -10 -26 -14 -864 -4 -935 8 -57 23 -78 70
-94 48 -16 98 -1 127 39 18 26 22 47 25 152 5 144 -6 134 148 134 65 0 106 -4
116 -12 12 -10 17 -39 21 -131 4 -113 6 -120 33 -148 23 -24 36 -29 73 -29 75
1 90 21 100 132 5 51 7 106 4 121 -4 18 1 34 12 47 16 18 31 20 125 20 128 0
144 -8 142 -69 -3 -67 -13 -78 -78 -83 -44 -4 -62 -10 -76 -28 -24 -29 -23
-65 2 -100 30 -41 74 -60 143 -60 101 0 168 28 209 87 l27 38 1 453 c0 403 -2
457 -16 482 -28 46 -62 59 -180 68 -92 7 -115 13 -151 35 -24 15 -43 33 -43
41 0 8 33 36 73 62 39 27 74 51 77 54 9 10 111 89 118 92 11 4 58 70 65 89 9
26 -22 75 -62 97 -38 22 -45 22 -517 21 -331 -1 -488 -5 -509 -13z m413 -668
c16 -16 15 -89 -2 -111 -12 -16 -28 -17 -137 -15 l-124 3 -3 54 c-2 29 -1 60
2 67 7 19 246 20 264 2z m502 -8 c12 -22 4 -87 -13 -107 -6 -9 -44 -13 -123
-13 -105 0 -114 1 -128 22 -19 27 -21 89 -4 106 8 8 53 12 135 12 112 0 123
-2 133 -20z m-502 -302 c16 -16 15 -83 -2 -100 -10 -10 -43 -13 -128 -12 -64
1 -121 4 -127 8 -12 8 -16 98 -4 109 12 13 248 8 261 -5z m503 -11 c7 -15 7
-36 2 -58 l-9 -34 -123 -3 c-136 -3 -151 2 -151 50 0 64 8 68 146 68 120 0
125 -1 135 -23z"/>
<path d="M6425 6906 c-50 -14 -67 -25 -88 -56 -16 -22 -17 -96 -17 -926 0
-841 1 -904 18 -933 19 -34 56 -51 113 -51 53 0 84 17 105 56 l18 34 651 2
c357 2 668 1 690 -2 35 -4 40 -9 43 -33 5 -37 39 -58 104 -60 63 -2 106 14
133 51 20 27 20 43 20 934 l0 907 -34 34 c-19 21 -48 38 -70 43 -62 13 -1640
13 -1686 0z m1519 -232 c14 -6 16 -76 16 -694 0 -654 -1 -688 -18 -704 -17
-15 -76 -16 -693 -14 l-674 3 -3 708 -2 707 679 0 c374 0 686 -3 695 -6z"/>
<path d="M7225 6593 c-50 -13 -75 -67 -75 -162 0 -36 -5 -73 -10 -81 -8 -12
-44 -16 -202 -18 l-193 -3 -32 -32 c-47 -45 -46 -93 2 -136 20 -17 41 -32 48
-32 7 -1 66 -4 132 -8 102 -5 120 -9 123 -23 2 -10 -22 -51 -52 -92 -79 -106
-82 -110 -168 -182 -98 -82 -118 -115 -118 -187 0 -49 3 -58 28 -77 22 -18 35
-21 70 -16 23 3 50 11 58 18 48 38 112 107 170 180 96 124 113 141 130 127 11
-9 14 -53 14 -215 0 -233 6 -260 67 -292 31 -17 64 -15 100 8 53 32 57 47 63
270 4 182 7 205 22 205 18 0 51 -28 194 -166 110 -106 161 -136 197 -118 44
23 62 52 62 99 0 57 -38 111 -114 166 -30 22 -59 44 -65 49 -21 19 -141 122
-170 146 -59 48 -76 68 -70 83 5 13 29 16 146 16 160 0 220 12 248 48 31 39
27 94 -11 131 l-31 31 -188 0 c-219 0 -220 0 -220 83 -1 76 -14 132 -37 157
-21 22 -79 34 -118 23z"/>
<path d="M8736 6901 c-66 -10 -102 -49 -111 -123 -3 -29 -5 -418 -3 -863 3
-903 -2 -841 71 -885 31 -19 57 -20 902 -20 l871 0 41 27 c31 20 42 34 46 61
8 46 -1 87 -25 108 -47 43 -56 44 -879 44 -708 0 -787 2 -793 16 -10 27 -7
1378 4 1394 8 13 109 15 792 17 603 2 788 6 807 15 13 7 32 32 42 55 16 38 17
45 3 81 -9 23 -29 47 -47 58 -31 18 -63 19 -852 20 -451 1 -842 -1 -869 -5z"/>
<path d="M10954 6876 c-67 -30 -90 -82 -59 -136 8 -14 18 -32 22 -40 4 -8 21
-26 37 -40 17 -14 70 -62 118 -106 95 -88 136 -106 187 -80 48 25 63 51 63
107 0 52 0 52 -75 123 -125 119 -146 136 -196 162 -56 28 -56 28 -97 10z"/>
<path d="M9253 6577 c-17 -18 -51 -63 -76 -102 -24 -38 -54 -81 -66 -95 -48
-57 -61 -83 -61 -123 0 -50 21 -84 61 -103 32 -14 42 -14 74 -3 20 8 53 31 74
52 l36 37 145 -2 145 -3 3 -99 c2 -59 -1 -103 -8 -111 -8 -10 -76 -14 -280
-16 l-270 -4 -30 -32 c-21 -22 -30 -42 -30 -66 0 -77 77 -98 348 -97 242 2
245 0 175 -87 -41 -52 -94 -98 -128 -112 -5 -2 -24 -15 -41 -28 -17 -12 -36
-23 -42 -23 -5 0 -34 -12 -64 -26 -29 -15 -68 -34 -86 -43 -44 -21 -62 -47
-62 -92 0 -45 28 -78 74 -89 36 -8 123 5 140 21 6 5 17 9 26 9 17 0 144 64
215 108 22 14 74 58 115 98 48 47 83 74 98 74 12 0 22 -4 22 -8 0 -5 17 -18
38 -30 20 -11 68 -41 105 -66 38 -25 73 -46 78 -46 5 0 9 -4 9 -9 0 -5 38 -34
84 -65 73 -49 89 -56 133 -56 43 0 54 4 76 30 15 16 27 41 27 55 0 51 -47 110
-117 151 -18 10 -33 21 -33 25 0 4 -11 10 -25 13 -14 4 -25 11 -25 16 0 6 -5
10 -11 10 -6 0 -25 11 -42 24 -18 13 -52 35 -77 48 -110 61 -121 70 -109 84 9
11 54 14 220 14 227 0 310 12 342 51 24 29 21 73 -6 105 -32 37 -79 43 -344
43 -188 1 -224 3 -237 17 -12 11 -16 36 -16 99 0 46 3 90 6 99 5 14 32 16 198
16 202 0 250 7 291 43 55 49 33 132 -41 155 -27 8 -160 12 -414 12 -206 1
-385 4 -397 7 -26 6 -30 32 -11 63 26 42 -41 89 -127 89 -43 0 -54 -5 -82 -32z"/>
<path d="M10847 6132 c-42 -26 -62 -76 -48 -123 18 -61 53 -79 155 -79 132 0
126 13 126 -282 0 -134 -4 -248 -8 -254 -4 -7 -32 -27 -62 -45 -133 -82 -190
-141 -190 -198 0 -40 48 -118 77 -126 38 -9 84 18 153 89 114 118 155 129 250
63 154 -108 283 -158 460 -177 125 -13 582 -14 799 -1 168 11 149 4 232 82 9
10 23 34 30 54 13 36 13 38 -15 60 -40 32 -77 34 -256 19 -228 -20 -765 -19
-866 2 -123 25 -239 68 -265 100 -6 8 -17 14 -25 14 -7 0 -29 15 -48 34 l-36
33 0 319 c0 445 7 435 -267 433 -138 -1 -173 -4 -196 -17z"/>
<path d="M6377 4374 c-4 -4 -7 -110 -7 -236 0 -194 2 -228 15 -228 12 0 15 22
17 112 3 95 6 113 19 116 11 2 52 -38 115 -111 93 -108 127 -136 139 -117 5 8
-77 112 -148 186 -20 22 -37 46 -37 54 0 9 25 42 56 75 85 92 127 145 121 151
-13 14 -40 -9 -133 -115 -54 -61 -105 -111 -114 -111 -14 0 -17 16 -18 107 -2
101 -9 133 -25 117z"/>
<path d="M7020 4185 c0 -185 1 -199 21 -227 29 -40 75 -58 151 -58 74 0 124
22 150 66 14 24 17 59 17 222 1 151 -2 193 -11 190 -10 -3 -14 -53 -18 -184
-5 -167 -7 -181 -28 -211 -43 -60 -155 -67 -216 -13 l-30 28 -6 188 c-4 137
-8 188 -17 192 -10 3 -13 -40 -13 -193z"/>
<path d="M7707 4373 c-4 -3 -7 -109 -7 -235 0 -221 1 -228 20 -228 19 0 20 7
20 173 0 129 3 178 13 192 13 17 16 15 48 -31 19 -27 36 -53 39 -59 14 -28
181 -274 190 -280 5 -3 19 -3 30 0 20 6 20 14 18 238 -3 198 -5 232 -18 232
-13 0 -16 -30 -20 -190 -4 -136 -8 -190 -17 -190 -12 0 -73 78 -73 94 0 5 -4
11 -8 13 -10 4 -92 128 -92 139 0 5 -4 9 -10 9 -5 0 -10 4 -10 10 0 11 -60
102 -75 112 -13 10 -40 10 -48 1z"/>
<path d="M8424 4367 c-2 -7 -3 -114 -2 -237 4 -279 21 -302 28 -38 4 164 7
183 22 186 12 2 21 -6 28 -23 6 -14 21 -41 35 -59 14 -18 25 -36 25 -39 0 -4
14 -29 31 -57 41 -67 67 -68 106 -2 36 60 53 98 53 121 0 10 11 28 26 41 21
21 27 22 34 10 5 -8 10 -93 10 -187 0 -147 2 -173 15 -173 13 0 15 33 15 235
l0 235 -28 0 c-25 0 -30 -6 -46 -52 -23 -65 -91 -196 -116 -221 -17 -18 -18
-18 -37 10 -11 15 -46 78 -78 138 -31 61 -62 113 -68 117 -19 12 -47 9 -53 -5z"/>
<path d="M9196 4358 c-3 -13 -6 -113 -6 -224 0 -145 3 -205 13 -217 11 -15 28
-17 127 -15 94 2 115 6 115 18 0 12 -19 16 -100 18 -64 2 -102 7 -107 15 -10
15 -10 148 0 164 4 6 34 12 67 13 150 5 184 30 40 30 -104 0 -115 8 -115 90 0
92 -3 90 117 90 94 0 104 2 101 18 -3 15 -18 17 -124 20 -119 3 -122 2 -128
-20z"/>
<path d="M9768 4364 c-2 -10 -1 -116 2 -238 l5 -221 100 1 c115 2 173 21 225
75 39 41 45 64 45 169 -1 92 -12 119 -68 172 -36 33 -137 58 -236 58 -57 0
-70 -3 -73 -16z m242 -44 c22 -11 51 -37 65 -57 22 -33 25 -48 25 -123 0 -75
-3 -90 -25 -123 -36 -53 -90 -77 -169 -77 -103 0 -96 -15 -96 200 0 141 3 190
13 193 6 3 43 6 80 6 49 1 78 -4 107 -19z"/>
</g>
</svg>
