<svg t="1730271959732" class="icon" viewBox="0 0 1024 1024" version="1.1" xmlns="http://www.w3.org/2000/svg" p-id="6607" width="200" height="200"><path d="M202.752 543.744h260.096v64H202.752z" fill="" p-id="6608"></path><path d="M564.224 896H151.04c-24.576 0-44.544-19.968-44.544-44.544V448h722.432c2.048 15.872 15.36 28.16 31.744 28.16s29.696-12.288 31.744-28.16h0.512V236.544c0-59.904-48.64-108.544-108.544-108.544h-83.456V64h-64V128h-337.92V64H234.496V128H151.04C91.136 128 42.496 176.64 42.496 236.544v615.424c0 59.904 48.64 108.544 108.544 108.544h413.184c17.92 0 31.744-14.336 31.744-31.744s-13.824-32.768-31.744-32.768zM106.496 236.544c0-24.576 19.968-44.544 44.544-44.544h83.456v96.256h64V192h337.92v96.256h64V192h83.456c24.576 0 44.544 19.968 44.544 44.544V384h-721.92V236.544z" fill="" p-id="6609"></path><path d="M202.752 736.256h260.096v64H202.752zM785.92 501.76c-126.976 0-230.4 103.424-230.4 230.4s103.424 230.4 230.4 230.4 230.4-103.424 230.4-230.4-103.424-230.4-230.4-230.4z m0 414.72c-101.888 0-184.32-82.944-184.32-184.32s82.944-184.32 184.32-184.32 184.32 82.944 184.32 184.32-82.944 184.32-184.32 184.32z" fill="" p-id="6610"></path><path d="M811.008 732.16l82.432-82.432c7.68-7.68 7.68-19.968 0-27.648-7.68-7.68-19.968-7.68-27.648 0L783.36 705.024l-82.432-82.432c-7.68-7.68-19.968-7.68-27.648 0-7.68 7.68-7.68 19.968 0 27.648l82.432 82.432-82.432 82.432c-7.68 7.68-7.68 19.968 0 27.648 5.12 5.12 9.728 5.12 14.848 5.12s9.728-2.56 14.848-5.12l82.432-82.432 82.432 82.432c5.12 5.12 9.728 5.12 14.848 5.12s9.728-2.56 14.848-5.12c7.68-7.68 7.68-19.968 0-27.648L811.008 732.16z" fill="" p-id="6611"></path></svg>