<svg t="1730344637512" class="icon" viewBox="0 0 1706 1024" version="1.1" xmlns="http://www.w3.org/2000/svg" p-id="9314" width="200" height="200"><path d="M1003.52 591.36V458.24H753.493333v127.146667l125.44 79.36 124.586667-77.653334" fill="#FFE2C5" p-id="9315"></path><path d="M1024.853333 570.88l-7.68-2.56-53.76 26.453333c-53.76 26.453333-116.906667 25.6-169.813333-3.413333l-49.493333-27.306667c-3.413333 2.56-7.68 5.12-12.8 6.826667l-204.8 47.786667c-24.746667 5.973333-35.84 34.986667-35.84 60.586666l26.453333 343.04s112.64 0.853333 250.88 0.853334h459.946667c6.826667 0 11.946667-5.12 11.946666-11.946667V664.746667c0-25.6 12.8-40.96-12.8-46.933334l-202.24-46.933333z" fill="#3c62b0" p-id="9316" data-spm-anchor-id="a313x.search_index.0.i7.23a53a81TDFCZD" class="selected"></path><path d="M753.493333 494.933333v59.733334c157.013333 19.626667 249.173333-79.36 249.173334-79.36v-17.066667H753.493333" fill="#FCD9BB" p-id="9317"></path><path d="M1238.186667 623.786667s22.186667 19.626667 37.546666 34.986666c10.24 10.24 30.72 44.373333 62.293334 102.4 15.36 45.226667 46.08 114.346667 46.08 137.386667-113.493333 46.08-174.08 69.973333-181.76 69.973333-12.8-25.6-42.666667-81.92-87.893334-168.96v-37.546666c0-19.626667 8.533333-38.4 23.04-51.2 61.44-55.466667 100.693333-87.04 100.693334-87.04zM620.373333 709.973333c14.506667 12.8 23.04 31.573333 23.04 51.2v37.546667c-29.866667 56.32-58.88 112.64-87.893333 168.96-7.68 0-68.266667-23.893333-181.76-69.973333 0-23.04 30.72-92.16 46.08-137.386667 30.72-58.026667 51.2-92.16 62.293333-102.4 15.36-15.36 27.306667-30.72 27.306667-30.72s49.493333 28.16 110.933333 82.773333z" fill="#3c62b0" p-id="9318" data-spm-anchor-id="a313x.search_index.0.i8.23a53a81TDFCZD" class="selected"></path><path d="M407.893333 1023.146667h-29.866666l3.413333-123.733334h56.32l-29.866667 123.733334z" fill="#FCD9BB" p-id="9319"></path><path d="M535.04 745.813333c6.826667-7.68 64-56.32 121.173333-88.746666s42.666667 0 34.986667 16.213333c-6.826667 16.213333-85.333333 56.32-92.16 72.533333-7.68 17.066667-71.68 7.68-64 0zM494.933333 866.986667c50.346667-56.32 80.213333-76.8 90.453334-59.733334 14.506667 25.6 7.68 76.8 67.413333 68.266667s90.453333 17.066667 82.773333 25.6c-7.68 8.533333-52.053333 8.533333-98.133333 17.066667-45.226667 8.533333-90.453333 42.666667-105.813333 42.666666-9.386667-0.853333-21.333333-31.573333-36.693334-93.866666z" fill="#FFE2C5" p-id="9320"></path><path d="M536.746667 1023.146667c4.266667-6.826667 13.653333-107.52 13.653333-132.266667 0-25.6 22.186667-68.266667 22.186667-68.266667h22.186666c7.68 0 14.506667 0 14.506667 8.533334s-45.226667 8.533333-37.546667 17.066666c7.68 8.533333 37.546667 33.28 59.733334 8.533334 22.186667-25.6 22.186667-93.866667 14.506666-102.4-7.68-8.533333-120.32-8.533333-142.506666 0-29.866667 39.253333-39.253333 42.666667-104.106667 268.8h137.386667z" fill="#FFE2C5" p-id="9321"></path><path d="M709.973333 168.96S695.466667 110.933333 737.28 52.053333c-90.453333 68.266667-73.386667 184.32-73.386667 184.32C691.2 263.68 691.2 332.8 691.2 332.8l27.306667-27.306667S708.266667 226.133333 758.613333 196.266667c46.933333-28.16 88.746667-14.506667 130.56-14.506667 17.92 0 34.133333-0.853333 48.64-3.413333-86.186667 2.56-138.24-64.853333-227.84-9.386667" fill="#5C5F68" p-id="9322"></path><path d="M1321.813333 899.413333h56.32l3.413334 123.733334h-29.866667l-29.866667-123.733334z" fill="#FCD9BB" p-id="9323"></path><path d="M1158.826667 745.813333c-6.826667-16.213333-85.333333-56.32-92.16-72.533333-6.826667-16.213333-21.333333-48.64 34.986666-16.213333 56.32 32.426667 113.493333 81.066667 121.173334 88.746666 7.68 7.68-57.173333 17.066667-64 0z m78.506666 214.186667c-14.506667 0-59.733333-33.28-104.96-42.666667-44.373333-8.533333-89.6-8.533333-97.28-17.066666-7.68-8.533333 22.186667-33.28 81.92-25.6 59.733333 8.533333 52.053333-42.666667 67.413334-68.266667 10.24-17.066667 39.253333 2.56 89.6 59.733333-14.506667 63.146667-26.453333 93.866667-36.693334 93.866667z" fill="#FFE2C5" p-id="9324"></path><path d="M1358.506667 1023.146667c-64.853333-226.986667-73.386667-229.546667-103.253334-268.8-22.186667-8.533333-134.826667-8.533333-141.653333 0-7.68 8.533333-7.68 76.8 14.506667 102.4s52.053333 0 59.733333-8.533334c7.68-8.533333-37.546667-8.533333-37.546667-17.066666s7.68-8.533333 14.506667-8.533334h22.186667s22.186667 42.666667 22.186666 68.266667 9.386667 126.293333 13.653334 132.266667h135.68z" fill="#FFE2C5" p-id="9325"></path><path d="M966.826667 749.226667h73.386666v80.213333h-73.386666v-80.213333z" fill="#E3E9F0" p-id="9326"></path><path d="M943.786667 768.853333h73.386666v60.586667h-73.386666v-60.586667z" fill="#E3E9F0" p-id="9327"></path><path d="M683.52 651.946667h381.44c7.68 0 14.506667 6.826667 14.506667 14.506666v214.186667c0 7.68-5.973333 14.506667-14.506667 14.506667H683.52c-7.68 0-14.506667-5.973333-14.506667-14.506667V665.6c0.853333-6.826667 6.826667-13.653333 14.506667-13.653333z" fill="#FFFFFF" p-id="9328"></path><path d="M762.88 690.346667h54.613333v11.946666h-54.613333v-11.946666z m0 34.133333h54.613333v11.946667h-54.613333v-11.946667z m0 34.133333h99.84v11.946667H762.88v-11.946667z m0 33.28h135.68v11.946667H762.88v-11.946667z m59.733333 57.173334h195.413334v11.946666H822.613333v-11.946666z m-59.733333-26.453334h65.706667v11.946667h-65.706667v-11.946667z m126.293333-98.133333h20.48v11.946667h-20.48v-11.946667z m-167.253333-35.84c0 0.853333-0.853333 1.706667-0.853333 2.56h2.56v0.853333c0 2.56-0.853333 4.266667-0.853334 6.826667l1.706667 1.706667-0.853333 0.853333c-0.853333-0.853333-0.853333-0.853333-0.853334-1.706667-0.853333 0.853333-0.853333 1.706667-2.56 2.56l-0.853333-0.853333 2.56-2.56c-0.853333-0.853333-0.853333-0.853333-2.56-1.706667 0.853333-0.853333 0.853333-2.56 0.853333-5.12h-0.853333v-1.706666h0.853333c0-0.853333 0.853333-1.706667 0.853334-2.56l0.853333 0.853333z m0 4.266667h-0.853333c-0.853333 1.706667-0.853333 2.56-0.853334 4.266666l0.853334 0.853334c0.853333-1.706667 0.853333-3.413333 0.853333-5.12z m2.56 3.413333l-0.853333-0.853333c0.853333-1.706667 0.853333-3.413333 0.853333-5.12h0.853333v0.853333h1.706667v-2.56h1.706667v2.56h2.56v1.706667h-2.56v3.413333h2.56v1.706667h-2.56v3.413333h3.413333v1.706667h-8.533333v-1.706667h3.413333v-3.413333H725.333333l-0.853333-1.706667 2.56 0.853333v-3.413333H725.333333c0 0.853333 0 1.706667-0.853333 2.56z m14.506667 6.826667h-1.706667v-5.12c-0.853333 0.853333-1.706667 0.853333-2.56 0.853333l-0.853333-2.56c2.56-0.853333 5.12-0.853333 6.826666-1.706667-0.853333-0.853333-1.706667-0.853333-2.56-1.706666l0.853334-0.853334c0.853333 0.853333 1.706667 0.853333 2.56 1.706667 1.706667-0.853333 2.56-1.706667 3.413333-2.56h-5.973333c-0.853333 0.853333-2.56 1.706667-4.266667 2.56l-0.853333-0.853333c2.56-0.853333 5.12-2.56 5.12-4.266667h1.706666c0 0.853333-0.853333 0.853333-0.853333 0.853333h5.973333v1.706667c-1.706667 2.56-3.413333 4.266667-5.973333 5.12h5.973333v6.826667h-1.706666v-0.853334l-5.12 0.853334z m6.826666-5.973334h-6.826666v3.413334h6.826666v-3.413334z m-26.453333 29.013334c0 1.706667 0 2.56-0.853333 5.12l-0.853334-0.853334c0.853333-0.853333 0.853333-2.56 0.853334-4.266666h0.853333z m2.56-3.413334v14.506667h-1.706667v-14.506667h1.706667z m1.706667 5.12c0.853333-0.853333 0.853333-2.56 0.853333-4.266666h0.853333v1.706666h1.706667v-2.56h1.706667v2.56h3.413333v1.706667h-3.413333v3.413333h2.56v1.706667h-2.56v3.413333h3.413333v1.706667h-9.386667v-2.56h5.12v-3.413333h-3.413333v-1.706667h3.413333v-3.413333H725.333333c-0.853333 0.853333-0.853333 2.56-0.853333 2.56l-0.853333-0.853334c-0.853333 0.853333-0.853333 0.853333 0 0l-0.853334 0.853334c0-0.853333-0.853333-1.706667-0.853333-2.56l0.853333-0.853334c0.853333 0.853333 0.853333 1.706667 0.853334 2.56z m11.093333 0.853334v-5.12h6.826667v5.12h-2.56v1.706666h3.413333v5.12c0 0.853333-0.853333 1.706667-2.56 1.706667h-0.853333l-0.853334-0.853333h0.853334c0.853333 0 0.853333-0.853333 0.853333-0.853334v-2.56h-2.56c0 0.853333-0.853333 1.706667-0.853333 2.56-0.853333 0.853333-1.706667 2.56-2.56 3.413334l-0.853334-0.853334c0.853333-0.853333 2.56-1.706667 2.56-2.56 0-0.853333 0.853333-0.853333 0.853334-1.706666H733.866667v-2.56h2.56v-1.706667l-1.706667-0.853333z m5.973333-4.266667h-4.266666v2.56h4.266666v-2.56z m4.266667 0V733.866667H742.4v-9.386667h2.56z m-1.706667 11.946667l-0.853333-1.706667h2.56c0.853333 0 0.853333-0.853333 0.853333-0.853333v-11.946667h1.706667v12.8c0 0.853333-0.853333 1.706667-1.706667 1.706667h-2.56z m105.813334-1.706667c1.706667-0.853333 3.413333-0.853333 4.266666-0.853333l0.853334 1.706666c-1.706667 0.853333-3.413333 0.853333-5.973334 1.706667l-0.853333-1.706667 0.853333-0.853333v-11.093333h11.093334v5.12h-5.12v1.706666h5.12v1.706667h-5.12c0 0.853333 0 0.853333 0.853333 0.853333 0.853333 0.853333 0.853333 1.706667 1.706667 2.56 0.853333 0.853333 0.853333 0.853333 1.706666 0.853334 0 0 0.853333 0 0.853334-0.853334s0-0.853333 0.853333-1.706666h1.706667c0 0.853333-0.853333 2.56-0.853334 2.56 0 0.853333-0.853333 0.853333-0.853333 0.853333-0.853333 0-1.706667-0.853333-2.56-0.853333l-2.56-2.56c0-0.853333-0.853333-0.853333-0.853333-0.853334h-5.973334l0.853334 1.706667z m0-10.24v2.56h8.533333v-2.56h-8.533333z m0 4.266667v1.706666h5.12c0-0.853333 0-0.853333-0.853334-1.706666h-4.266666z m15.36-4.266667c-0.853333-0.853333-0.853333-0.853333-0.853334-1.706667l1.706667-0.853333c0.853333 0.853333 0.853333 0.853333 0.853333 2.56h1.706667v1.706667h-2.56v1.706666h2.56v6.826667c0 0.853333-0.853333 1.706667-2.56 1.706667h-0.853333l-0.853334-0.853334h0.853334c0.853333 0 0.853333-0.853333 0.853333-0.853333v-5.973333h-1.706667c0 2.56-0.853333 5.12-1.706666 7.68l-0.853334-0.853334c0.853333-2.56 1.706667-5.12 1.706667-6.826666v-2.56h-0.853333v-1.706667h2.56z m4.266666 4.266667l-0.853333-0.853334c0.853333-0.853333 1.706667-2.56 1.706667-5.12l0.853333 0.853334c0 0.853333-0.853333 0.853333-0.853333 0.853333h5.973333v1.706667h-5.12c-0.853333 0.853333-0.853333 1.706667-1.706667 2.56z m0.853334 1.706666l-0.853334-0.853333c0.853333-0.853333 0.853333-2.56 1.706667-3.413333h0.853333c0 0.853333 0 0.853333-0.853333 0.853333h4.266667v0.853333h-2.56v1.706667h3.413333v1.706667h-2.56c0.853333 1.706667 1.706667 2.56 3.413333 3.413333l-0.853333 0.853333c-1.706667-0.853333-2.56-2.56-3.413333-4.266666-0.853333 1.706667-1.706667 2.56-3.413334 4.266666l-0.853333-0.853333c1.706667-0.853333 2.56-2.56 2.56-3.413333v-0.853334h-2.56v-1.706666h2.56v-1.706667h-0.853333c0.853333 2.56 0.853333 3.413333 0 3.413333z m-139.946667 27.306667h1.706667v5.973333h-5.12v5.973334h4.266666v-5.12h1.706667v6.826666h-1.706667v-0.853333h-9.386666v0.853333h-1.706667v-6.826666h1.706667v4.266666h4.266666v-5.973333h-5.12v-5.973333h1.706667v4.266666h3.413333v-5.12h1.706667v5.12h3.413333l-0.853333-3.413333z m5.12 5.973333l-0.853333-0.853333c1.706667-1.706667 2.56-3.413333 2.56-6.826667l1.706666 0.853334c0 0.853333-0.853333 1.706667-0.853333 2.56h2.56v-2.56h2.56v2.56h5.12v1.706666H742.4v3.413334h5.12v1.706666H742.4v3.413334h6.826667v1.706666h-13.653334v-1.706666h6.826667v-3.413334h-5.12v-1.706666h5.12v-3.413334h-3.413333c-2.56 1.706667-3.413333 1.706667-4.266667 2.56z m-11.093333 27.306667l-1.706667 3.413333v10.24h-1.706667v-7.68l-1.706666 1.706667-0.853334-1.706667c1.706667-1.706667 2.56-4.266667 3.413334-6.826666l2.56 0.853333z m3.413333 2.56c0-0.853333-0.853333-1.706667-0.853333-2.56l1.706666-0.853333c0.853333 0.853333 0.853333 1.706667 0.853334 2.56h4.266666v1.706666h-4.266666v3.413334h3.413333v1.706666h-3.413333v3.413334h5.12v1.706666h-10.24v-1.706666h5.12v-3.413334H725.333333v-1.706666h3.413334V793.6h-4.266667v-1.706667l2.56 1.706667z m11.946667 7.68l-5.12 1.706667-0.853334-1.706667c0.853333 0 0.853333 0 1.706667-0.853333v-5.12h-1.706667V793.6h1.706667v-4.266667h1.706667v4.266667h1.706666v1.706667h-1.706666v5.12c0.853333 0 0.853333-0.853333 1.706666-0.853334l0.853334 1.706667z m5.973333-11.093333v5.12h2.56v1.706666h-2.56v6.826667h3.413333v1.706667h-9.386666v-1.706667h1.706666v-8.533333h1.706667v8.533333h1.706667l0.853333-13.653333z m-25.6 58.026666c-0.853333 2.56-2.56 5.12-5.12 6.826667l-0.853333-0.853333c1.706667-1.706667 3.413333-4.266667 4.266666-6.826667l1.706667 0.853333z m7.68 13.653334H725.333333c0-0.853333-0.853333-0.853333-0.853333-1.706667-2.56 0.853333-5.973333 0.853333-8.533333 0.853333l-0.853334-1.706666c0.853333-0.853333 2.56-2.56 5.12-6.826667l1.706667 0.853333c-0.853333 2.56-2.56 5.12-4.266667 6.826667 2.56 0 5.12-0.853333 6.826667-0.853333-0.853333-0.853333-0.853333-1.706667-1.706667-2.56l0.853334-0.853334c1.706667 1.706667 2.56 3.413333 3.413333 5.973334z m1.706667-6.826667l-0.853334 0.853333c-2.56-1.706667-4.266667-5.12-5.12-6.826666l0.853334-0.853334c1.706667 2.56 3.413333 5.12 5.12 6.826667z m4.266666 5.12c0.853333-0.853333 2.56-0.853333 4.266667-0.853333l0.853333 1.706666c-1.706667 0.853333-3.413333 0.853333-5.973333 1.706667l-0.853333-1.706667 0.853333-0.853333v-11.093333H742.4v5.12h-4.266667v1.706666h5.12v1.706667h-5.12c0 0.853333 0 0.853333 0.853334 0.853333 0.853333 0.853333 0.853333 1.706667 1.706666 2.56 0.853333 0.853333 0.853333 0.853333 1.706667 0.853334 0 0 0.853333 0 0.853333-0.853334s0-0.853333 0.853334-1.706666l0.853333 0.853333c0 0.853333-0.853333 2.56-0.853333 2.56 0 0.853333-0.853333 0.853333-0.853334 0.853333-0.853333 0-1.706667-0.853333-2.56-0.853333l-2.56-2.56c0-0.853333-0.853333-0.853333-0.853333-0.853333H733.866667v2.56l-0.853334-1.706667z m0-10.24v2.56h8.533334v-2.56h-8.533334z m0 3.413333v1.706667h5.12c0-0.853333 0-0.853333-0.853333-1.706667h-4.266667z m20.48-5.973333c0 0.853333 0 0.853333-0.853333 0.853333h5.12v6.826667c0.853333-0.853333 0.853333-1.706667 1.706667-2.56l0.853333 0.853333c-0.853333 1.706667-1.706667 2.56-2.56 3.413334v3.413333c0 0.853333-0.853333 1.706667-1.706667 1.706667h-1.706666l-0.853334-1.706667h1.706667c0.853333 0 0.853333 0 0.853333-0.853333v-0.853334l-0.853333 0.853334c-2.56 0.853333-5.12 2.56-7.68 2.56l-0.853333-0.853334c2.56-0.853333 5.973333-0.853333 8.533333-2.56h-8.533333v-0.853333h1.706666v-6.826667h3.413334c0-0.853333 0.853333-0.853333 0.853333-0.853333l0.853333-2.56z m2.56 4.266667v-0.853334h-6.826666v0.853334h6.826666z m0 2.56v-0.853334h-6.826666v0.853334h6.826666z m0 1.706666v-0.853333h-6.826666v0.853333h6.826666z m9.386667-7.68l-1.706667 3.413334v10.24h-1.706666v-8.533334l-1.706667 1.706667-0.853333-1.706667c1.706667-1.706667 2.56-4.266667 3.413333-6.826666l2.56 1.706666z m0.853333 6.826667v-0.853333 0.853333l-1.706666-1.706667c1.706667-1.706667 2.56-3.413333 3.413333-5.973333l0.853333 0.853333c-0.853333 1.706667-0.853333 3.413333-2.56 5.12h6.826667v6.826667c0 0.853333-0.853333 1.706667-2.56 1.706667h-1.706667l-0.853333-1.706667h1.706667c0.853333 0 0.853333-0.853333 0.853333-0.853333v-5.12h-1.706667c-0.853333 1.706667-0.853333 2.56-0.853333 4.266666-0.853333 0.853333-1.706667 2.56-2.56 2.56l-0.853333-0.853333 2.56-2.56c0.853333-0.853333 0.853333-1.706667 0.853333-3.413333l-1.706667 0.853333z m9.386667-1.706667l-0.853333 0.853334c-1.706667-1.706667-2.56-3.413333-4.266667-5.973334l0.853333-0.853333c1.706667 2.56 2.56 4.266667 4.266667 5.973333z m5.12-0.853333v6.826667l0.853333-0.853334 0.853334 1.706667-2.56 2.56-0.853334-0.853333 0.853334-0.853334v-5.973333H776.533333v-1.706667h4.266667v-0.853333z m0.853333-1.706667l-0.853333 0.853334-2.56-2.56 0.853333-0.853334c0.853333 0 1.706667 0.853333 2.56 2.56z m0.853334-0.853333v-1.706667h8.533333v1.706667h-2.56v4.266667h2.56v1.706666h-2.56v5.12h3.413333v1.706667h-9.386666v-1.706667h1.706666v-7.68h1.706667v7.68h1.706667v-10.24l-5.12-0.853333z m10.24 5.12v-1.706667h14.506666v1.706667h-8.533333l-0.853333 1.706667h6.826666c0 2.56-0.853333 4.266667-0.853333 5.12-0.853333 0.853333-0.853333 0.853333-2.56 0.853333h-2.56l-0.853333-0.853333h2.56c0.853333 0 0.853333 0 1.706666-0.853334 0-0.853333 0.853333-0.853333 0.853334-2.56h-7.68l0.853333-2.56-3.413333-0.853333z m11.946666-6.826667v5.12h-9.386666v-5.12h9.386666z m-1.706666 0.853334h-6.826667v1.706666h6.826667v-1.706666z" fill="#E2E5EF" p-id="9329"></path><path d="M981.333333 771.413333v-12.8h-34.133333v12.8l17.066667 15.36 17.066666-15.36" fill="#FEE9E8" p-id="9330"></path><path d="M1007.786667 779.093333l-23.893334-5.973333c-0.853333 0-0.853333 0-0.853333-0.853333l-18.773333 10.24-17.92-11.093334c-0.853333 0.853333-0.853333 0.853333-1.706667 0.853334l-23.893333 5.973333c-3.413333 0.853333-5.973333 4.266667-5.973334 6.826667v14.506666c0 2.56 1.706667 4.266667 4.266667 4.266667h90.453333c2.56 0 4.266667-1.706667 4.266667-3.413333v-14.506667c0-2.56-2.56-5.973333-5.973333-6.826667" fill="#EDF1F6" p-id="9331"></path><path d="M947.2 758.613333v14.506667c22.186667 7.68 34.133333-11.093333 34.133333-11.093333V759.466667l-34.133333-0.853334" fill="#F5DDDD" p-id="9332"></path><path d="M941.226667 715.093333l1.706666 34.986667c0 3.413333 1.706667 6.826667 5.12 8.533333l6.826667 5.973334c1.706667 1.706667 4.266667 2.56 6.826667 2.56h6.826666c2.56 0 5.12-0.853333 6.826667-2.56l6.826667-5.973334c2.56-1.706667 4.266667-5.12 5.12-8.533333l1.706666-34.986667h-47.786666" fill="#FFEEEE" p-id="9333"></path><path d="M929.28 793.6l-12.8-10.24c-0.853333 0.853333-1.706667 2.56-1.706667 5.12V802.133333c0 2.56 1.706667 4.266667 4.266667 4.266667h12.8v-5.973333c0.853333-3.413333-0.853333-5.973333-2.56-6.826667m70.826667 0l12.8-10.24c0.853333 0.853333 1.706667 2.56 1.706666 5.12V802.133333c0 2.56-1.706667 4.266667-3.413333 4.266667H998.4v-5.973333c-1.706667-3.413333 0-5.973333 1.706667-6.826667" fill="#E3E9F0" p-id="9334"></path><path d="M969.386667 784.213333h-9.386667v3.413334c0 0.853333 0.853333 2.56 2.56 2.56h5.12c0.853333 0 2.56-0.853333 2.56-2.56l-0.853333-3.413334" fill="#C7CDE5" p-id="9335"></path><path d="M947.2 768.853333l17.066667 15.36s-5.12 2.56-10.24 6.826667c-0.853333 0.853333-2.56 0.853333-4.266667-0.853333l-7.68-17.92 2.56-4.266667c0 0.853333 1.706667 0 2.56 0.853333m34.986667 0l-17.066667 15.36s5.12 2.56 10.24 6.826667c0.853333 0.853333 2.56 0.853333 4.266667-0.853333l7.68-17.92-2.56-4.266667c0 0.853333-1.706667 0-2.56 0.853333" fill="#E3E9F0" p-id="9336"></path><path d="M976.213333 704l1.706667 12.8c7.68 1.706667 8.533333 14.506667 9.386667 17.92 0 0.853333 0 0.853333 0.853333 1.706667l2.56 5.12s-0.853333-7.68 4.266667-12.8c0-0.853333 0.853333-32.426667-18.773334-24.746667" fill="#9499AD" p-id="9337"></path><path d="M992.426667 739.84l-2.56 8.533333c0 0.853333-0.853333 1.706667-2.56 1.706667-0.853333 0-2.56-0.853333-2.56-1.706667l-0.853334-8.533333c-0.853333-2.56 1.706667-5.12 4.266667-5.12 3.413333 0.853333 5.12 3.413333 4.266667 5.12" fill="#FFEEEE" p-id="9338"></path><path d="M941.226667 699.733333l2.56 1.706667c-12.8 8.533333-10.24 25.6-10.24 25.6 4.266667 4.266667 4.266667 12.8 4.266666 12.8l4.266667-4.266667s-1.706667-10.24 5.973333-15.36c6.826667-4.266667 12.8-1.706667 17.92-1.706666 16.213333 0 20.48-5.973333 19.626667-12.8-0.853333-4.266667-6.826667-11.093333-21.333333-11.093334l-23.04 5.12" fill="#9499AD" p-id="9339"></path><path d="M941.226667 718.506667s-1.706667-7.68 4.266666-16.213334c-12.8 8.533333-10.24 25.6-10.24 25.6 3.413333 4.266667 3.413333 12.8 3.413334 12.8l3.413333-4.266666s-1.706667-10.24 5.973333-15.36c6.826667-4.266667 11.946667-1.706667 17.92-1.706667 2.56 0 5.12 0 6.826667-0.853333-11.946667 1.706667-18.773333-6.826667-31.573333 0" fill="#9499AD" p-id="9340"></path><path d="M936.96 739.84l2.56 8.533333c0 0.853333 0.853333 1.706667 2.56 1.706667 0.853333 0 2.56-0.853333 2.56-1.706667l0.853333-8.533333c0.853333-2.56-1.706667-5.12-4.266666-5.12-2.56 0.853333-4.266667 3.413333-4.266667 5.12" fill="#FFEEEE" p-id="9341"></path><path d="M989.866667 801.28h-12.8c-0.853333 0-1.706667 0.853333-1.706667 1.706667v1.706666h17.066667v-1.706666c-1.706667-0.853333-1.706667-1.706667-2.56-1.706667" fill="#E3E9F0" p-id="9342"></path><path d="M709.973333 141.653333L721.92 409.6c0.853333 25.6 12.8 48.64 32.426667 63.146667l55.466666 43.52c14.506667 11.093333 30.72 16.213333 48.64 16.213333h53.76c17.066667 0 34.133333-5.973333 48.64-16.213333l55.466667-43.52c19.626667-15.36 30.72-38.4 32.426667-63.146667l11.946666-267.946667H709.973333" fill="#FFE2C5" p-id="9343"></path><path d="M710.826667 38.4l20.48 14.506667c-93.013333 68.266667-75.093333 184.32-75.093334 184.32 27.306667 27.306667 27.306667 96.426667 27.306667 96.426666l27.306667-27.306666s-11.093333-79.36 41.813333-109.226667c48.64-28.16 90.453333-14.506667 133.973333-14.506667 116.053333 0 148.48-42.666667 143.36-96.426666-2.56-27.306667-45.226667-84.48-152.746666-82.773334-95.573333-10.24-157.866667 7.68-166.4 34.986667" fill="#5C5F68" p-id="9344"></path><path d="M962.56 62.293333l12.8 90.453334c58.88 11.946667 68.266667 104.106667 69.12 130.56 0 5.12 1.706667 9.386667 5.12 13.653333l23.04 34.986667s0.853333-48.64 36.693333-87.893334c-0.853333 0 2.56-236.373333-146.773333-181.76" fill="#5C5F68" p-id="9345"></path><path d="M1085.44 325.973333l-16.213333 62.293334c-1.706667 7.68-8.533333 12.8-16.213334 12.8-8.533333 0-5.973333-0.853333-5.973333-0.853334l-2.56-77.653333c0.853333-19.626667 2.56-30.72 7.68-30.72 19.626667-0.853333 38.4 16.213333 33.28 34.133333m-409.6 0l16.213333 62.293334c1.706667 7.68 8.533333 12.8 16.213334 12.8 8.533333 0 12.8-1.706667 13.653333-5.973334l-4.266667-77.653333c0-17.066667 0-27.306667-12.8-25.6-19.626667 1.706667-32.426667 16.213333-29.013333 34.133333" fill="#FCD9BB" p-id="9346"></path></svg>