<svg t="1729664583195" class="icon" viewBox="0 0 1024 1024" version="1.1" xmlns="http://www.w3.org/2000/svg" p-id="6426" width="200" height="200"><path d="M227.37 763.63l-40.78-357.48c-4-34.95 34.22-59 64-40.28l69.89 43.93a49.18 49.18 0 0 0 65-11.51l133.29-172a42 42 0 0 1 66.29 0l134.8 173.54a49.19 49.19 0 0 0 65.22 11.35l72.9-46.3C887.75 346 926.14 370 922.16 405l-40.78 358.61a54.55 54.55 0 0 1-54.2 48.39H281.57a54.54 54.54 0 0 1-54.2-48.37z" fill="#B9D6F9" p-id="6427" data-spm-anchor-id="a313x.search_index.0.i13.56c23a8134p7wB" class=""></path><path d="M836.37 625.52H164.28a27.5 27.5 0 1 1 0-55h672.09a27.5 27.5 0 0 1 0 55zM803.91 885.08H196.73a27.5 27.5 0 1 1 0-55h607.18a27.5 27.5 0 0 1 0 55z" fill="#4562ab" p-id="6428" data-spm-anchor-id="a313x.search_index.0.i16.56c23a8134p7wB" class="selected"></path><path d="M773.18 772.75H227.57A82 82 0 0 1 146.05 700l-40.79-357.49a69.46 69.46 0 0 1 106-66.67l69.88 43.92a21.61 21.61 0 0 0 28.68-5.07l133.25-171.95a69 69 0 0 1 54.86-26.9 69 69 0 0 1 54.85 26.85l134.8 173.52a21.6 21.6 0 0 0 28.75 5l72.91-46.3a69.45 69.45 0 0 1 106.24 66.47L854.71 700a82 82 0 0 1-81.53 72.75z m-572.49-79a27 27 0 0 0 26.88 24h545.61a27 27 0 0 0 26.88-24l40.77-358.57a14.44 14.44 0 0 0-22.1-13.83l-72.91 46.3A76.7 76.7 0 0 1 644.14 350L509.38 176.42a14.19 14.19 0 0 0-11.38-5.58 14.24 14.24 0 0 0-11.42 5.59l-133.28 172a76.43 76.43 0 0 1-101.42 17.95L182 322.41a14.45 14.45 0 0 0-22.05 13.87z" fill="#4562ab" p-id="6429" data-spm-anchor-id="a313x.search_index.0.i14.56c23a8134p7wB" class="selected"></path></svg>