<svg t="1730271852842" class="icon" viewBox="0 0 1339 1024" version="1.1" xmlns="http://www.w3.org/2000/svg" p-id="3300" width="200" height="200"><path d="M1102.39812 660.584617c-12.437899-9.578612-30.308443-7.148218-39.74409 5.146716L848.636394 944.225891c-9.86454 12.866792-24.446904 20.872795-41.173733 22.588368-17.155722 1.858537-34.454409-3.145216-48.750844-14.153471L630.758722 854.301314c-12.437899-9.578612-30.308443-7.148218-39.74409 5.289681-9.578612 12.437899-7.148218 30.308443 5.289681 39.74409l128.096059 98.359474c22.302439 17.155722 49.036773 26.305441 76.342964 26.305441 4.288931 0 8.720825-0.285929 13.009756-0.714822 32.309944-3.431144 60.75985-19.157223 80.203002-44.461913l213.874671-278.351594c9.292683-12.580863 7.005253-30.451407-5.432645-39.887054zM557.560973 702.902065c0 15.726079 12.723827 28.449906 28.449907 28.449906 15.726079 0 28.449906-12.723827 28.449906-28.449906v-119.661163h147.253282c15.726079 0 28.449906-12.723827 28.449906-28.449906s-12.723827-28.449906-28.449906-28.449906h-147.253282V436.845406h147.253282c15.726079 0 28.449906-12.723827 28.449906-28.449906 0-15.726079-12.723827-28.449906-28.449906-28.449906h-109.224765l105.364728-112.369981c10.722326-11.437148 10.150469-29.450657-1.286679-40.172983s-29.450657-10.150469-40.172983 1.286679L586.153844 367.650659l-130.240525-138.96135c-10.722326-11.437148-28.735835-12.009006-40.172983-1.286679s-12.009006 28.735835-1.286679 40.172983l105.364727 112.369981H410.307691c-15.726079 0-28.449906 12.723827-28.449906 28.449906 0 15.726079 12.723827 28.449906 28.449906 28.449906h147.253282v89.638648H410.307691c-15.726079 0-28.449906 12.723827-28.449906 28.449907s12.723827 28.449906 28.449906 28.449906h147.253282v119.518198z" fill="" p-id="3301"></path><path d="M1111.118945 505.468295c-0.428893-56.756848-10.436398-111.083302-28.021013-161.978611-21.873546-75.342214-9.435647-32.452908-0.142964-0.428893-32.452908-93.355722-91.068292-174.559474-167.268292-234.461538-36.884803-35.598124-86.779362-57.47167-133.957598-75.628142-38.600375-17.584615-80.917823-24.589869-122.806379-29.87955-0.428893-0.142964-0.857786-0.142964-1.286679-0.142964C365.130955-29.075418 87.208255 203.813512 88.637898 504.038651c0.285929 4.288931 0.428893 8.720825 1.000751 13.009756 1.429644 96.500938 30.8803 192.001125 83.491181 272.775984 25.590619 39.458161 57.185741 75.342214 92.640901 106.365478 11.723077 10.293433 29.593621 26.162476 46.892307 22.588368 23.160225-4.717824 21.587617-33.596623 10.579362-48.321951C205.439774 779.959851 139.247279 632.420639 147.682176 484.595499c9.292683-163.694183 108.652908-313.37786 256.763976-384.145214 143.53621-68.622889 319.668291-53.897561 451.195496 35.598124 121.233771 82.633396 197.719699 223.024389 198.720449 370.134707 0.142964 29.307692 44.175985 38.028518 54.898311 10.436398l1.858537-11.151219z" fill="" p-id="3302"></path></svg>