<svg t="1730272225300" class="icon" viewBox="0 0 1024 1024" version="1.1" xmlns="http://www.w3.org/2000/svg" p-id="7993" width="200" height="200"><path d="M544 864c-8.189 0-16.379-3.124-22.627-9.373l-96-96c-12.497-12.496-12.497-32.758 0-45.254 12.497-12.498 32.758-12.498 45.255 0L544 786.745l361.373-361.373c12.496-12.497 32.758-12.497 45.254 0 12.497 12.497 12.497 32.758 0 45.255l-384 384C560.379 860.876 552.189 864 544 864zM736 256c0 17.673-14.327 32-32 32H256c-17.673 0-32-14.327-32-32 0-17.673 14.327-32 32-32h448c17.673 0 32 14.327 32 32zM736 448c0 17.673-14.327 32-32 32H256c-17.673 0-32-14.327-32-32 0-17.673 14.327-32 32-32h448c17.673 0 32 14.327 32 32zM352 640c0 17.673-14.327 32-32 32h-64c-17.673 0-32-14.327-32-32 0-17.673 14.327-32 32-32h64c17.673 0 32 14.327 32 32z" p-id="7994"></path><path d="M896 320V191.173C896 121.05 838.95 64 768.827 64H191.173C121.05 64 64 121.05 64 191.173v641.654C64 902.95 121.05 960 191.173 960h577.654C838.95 960 896 902.95 896 832.827V704c0-17.674-14.327-32-32-32-17.673 0-32 14.326-32 32v128.827C832 867.661 803.661 896 768.827 896H191.173C156.339 896 128 867.661 128 832.827V191.173C128 156.339 156.339 128 191.173 128h577.654C803.661 128 832 156.339 832 191.173V320c0 17.673 14.327 32 32 32 17.673 0 32-14.327 32-32z" p-id="7995"></path></svg>