<svg t="1730186736145" class="icon" viewBox="0 0 1024 1024" version="1.1" xmlns="http://www.w3.org/2000/svg" p-id="25569" width="200" height="200"><path d="M31.88278397 250.60415174L127.90622761 250.60415174l0 96.02344255c0 17.07083418 14.93697964 32.00781491 32.00781382 32.00781491l64.01562874 0c17.07083418 0 32.00781491-14.93697964 32.0078149-32.00781491L255.93748507 250.60415174l96.02344255 0c17.07083418 0 32.00781491-14.93697964 32.00781491-32.0078149l0-64.01562874c0-17.07083418-14.93697964-32.00781491-32.00781491-32.00781382L255.93748507 122.57289428l0-96.02344364c0-17.07083418-14.93697964-32.00781491-32.0078149-32.00781491l-64.01562874 0c-17.07083418 0-32.00781491 14.93697964-32.00781382 32.00781491L127.90622761 122.57289428l-96.02344364 0c-17.07083418 0-32.00781491 14.93697964-32.00781491 32.00781382l0 64.01562874c0 17.07083418 14.93697964 32.00781491 32.00781491 32.0078149zM341.29165599 431.9817663c0 17.07083418-14.93697964 32.00781491-32.00781383 32.00781491L255.93748507 463.98958121 255.93748507 933.43752561c0 46.94479454 38.40937745 85.35417201 85.35417092 85.354172L938.77085894 1018.79169761C985.71565349 1018.79169761 1024.12503094 980.38232016 1024.12503094 933.43752561l0-597.47920295c0-46.94479454-38.40937745-85.35417201-85.354172-85.35417092l-469.4479444 0 0 53.34635709c0 17.07083418-14.93697964 32.00781491-32.00781491 32.00781383L341.29165599 335.95832266l0 96.02344364zM725.38542948 826.74481033c0-12.80312617 8.53541709-21.33854327 21.33854326-21.33854219L874.7552302 805.40626814c12.80312617 0 21.33854327 8.53541709 21.33854219 21.33854219L896.09377239 869.42189687c0 12.80312617-8.53541709 21.33854327-21.33854219 21.33854219l-128.03125745 0c-12.80312617 0-21.33854327-8.53541709-21.33854328-21.33854219l1e-8-42.67708654z m-256.06251494-341.41668693c0-12.80312617 8.53541709-21.33854327 21.33854219-21.33854219L874.7552302 463.98958121c12.80312617 0 21.33854327 8.53541709 21.33854219 21.33854219l0 42.67708654c0 12.80312617-8.53541709 21.33854327-21.33854219 21.33854219l-384.09377347 0c-12.80312617 0-21.33854327-8.53541709-21.33854219-21.33854219l0-42.67708654z m-85.35417201 170.70834401c0-12.80312617 8.53541709-21.33854327 21.33854328-21.33854327L874.7552302 634.69792414c12.80312617 0 21.33854327 8.53541709 21.33854219 21.33854328l0 42.67708545c0 12.80312617-8.53541709 21.33854327-21.33854219 21.33854327l-469.44794439 0c-12.80312617 0-21.33854327-8.53541709-21.33854328-21.33854327l0-42.67708546z" p-id="25570"></path></svg>