<svg t="1730182019255" class="icon" viewBox="0 0 1075 1024" version="1.1" xmlns="http://www.w3.org/2000/svg" p-id="18846" width="200" height="200"><path d="M475.136 690.688c-7.68 0-15.36-3.072-20.992-8.192l-166.4-158.72c-12.288-11.776-12.8-31.232-1.024-43.008 11.776-12.288 31.232-12.8 43.008-1.024l144.896 137.728L744.96 343.04c11.776-12.288 31.232-12.288 43.008-0.512 12.288 11.776 12.288 31.232 0.512 43.008l-291.328 295.936c-5.632 5.632-13.824 9.216-22.016 9.216z" p-id="18847" fill="#3c62b0"></path><path d="M538.112 1018.88c-19.456 0-38.4-4.608-52.736-13.312l-348.16-198.144c-30.208-17.408-52.736-56.832-52.736-91.136V308.224c0-34.816 22.528-74.24 52.736-91.136l348.16-198.656c14.336-8.704 33.28-13.312 52.736-13.312s38.4 4.608 52.736 13.312l347.648 198.656c30.208 17.408 52.736 56.832 52.736 91.136v407.552c0 34.816-22.528 74.24-52.736 91.136l-347.648 198.656c-14.336 8.704-33.792 13.312-52.736 13.312z m0-957.952c-8.704 0-16.896 1.536-22.528 4.608l-353.28 204.288c-11.264 6.656-22.528 25.6-22.528 38.4v407.552c0 13.312 10.752 31.744 22.528 38.4l353.28 203.776c5.12 3.072 13.312 4.608 22.528 4.608 8.704 0 16.896-1.536 22.528-4.608l352.768-203.776c11.264-6.656 22.528-25.6 22.528-38.4V308.224c0-13.312-10.752-31.744-22.528-38.4l-353.28-203.776c-5.632-3.072-13.312-5.12-22.016-5.12z" p-id="18848" fill="#3c62b0"></path></svg>