<svg t="1730186526329" class="icon" viewBox="0 0 1024 1024" version="1.1" xmlns="http://www.w3.org/2000/svg" p-id="20713" width="200" height="200"><path d="M512 549.290667a227.754667 227.754667 0 1 1 227.754667-227.669334A228.010667 228.010667 0 0 1 512 549.290667zM512 162.133333a159.488 159.488 0 1 0 159.488 159.488A159.658667 159.658667 0 0 0 512 162.133333zM682.666667 930.133333H109.226667a34.133333 34.133333 0 0 1-34.133334-34.133333V763.904C75.093333 661.418667 279.210667 571.733333 512 571.733333a869.546667 869.546667 0 0 1 177.664 18.005334 34.133333 34.133333 0 0 1-13.994667 66.816A806.058667 806.058667 0 0 0 512 640c-225.621333 0-368.64 87.04-368.64 123.904V861.866667H682.666667a34.133333 34.133333 0 0 1 0 68.266666z" p-id="20714"></path><path d="M912.213333 797.610667h-256a34.133333 34.133333 0 0 1 0-68.266667h256a34.133333 34.133333 0 0 1 0 68.266667z" p-id="20715"></path><path d="M784.298667 925.610667a34.133333 34.133333 0 0 1-34.133334-34.133334v-256a34.133333 34.133333 0 0 1 68.266667 0v256a34.133333 34.133333 0 0 1-34.133333 34.133334z" p-id="20716"></path></svg>