<svg t="1730186651952" class="icon" viewBox="0 0 1024 1024" version="1.1" xmlns="http://www.w3.org/2000/svg" p-id="24532" width="200" height="200"><path d="M518.417153 854.648964l-37.588083 0c-24.131607 0-46.443775-16.59291-54.272068-40.342824-7.772011-23.595394-8.429996-60.796668-8.135284-85.190241l15.653515 0c17.248849 0 31.233352-13.984503 31.233352-31.233352 0-17.248849-13.984503-31.233352-31.233352-31.233352L235.017618 666.649196c-41.934065 0-70.738088-41.913599-76.731592-81.591273l-31.320333-312.914756c0.529049-37.028335 21.295002-76.299757 66.188468-76.299757 17.248849 0 31.233352-13.984503 31.233352-31.233352 0-17.248849-13.984503-31.233352-31.233352-31.233352-73.350588 0-128.665405 60.280922-128.665405 140.220578 0 1.036609 0.051165 2.079358 0.157589 3.110851l31.558763 315.299059c0.046049 0.457418 0.101307 0.914836 0.167822 1.367137 9.775644 67.454298 60.539818 135.741567 138.644687 135.741567l120.927163 0c-0.350994 28.912493 0.571005 72.218812 11.281951 104.732319 16.404622 49.808406 62.060451 83.268472 113.602338 83.268472l37.588083 0c17.248849 0 31.233352-13.979386 31.233352-31.233352S535.666002 854.648964 518.417153 854.648964z" fill="#999999" p-id="24533"></path><path d="M733.930555 460.737476c-124.573203 0-225.924519 102.367459-225.924519 228.191142s101.351316 228.187049 225.924519 228.187049c124.57832 0 225.924519-102.363366 225.924519-228.187049S858.508875 460.737476 733.930555 460.737476zM733.930555 854.648964c-90.131787 0-163.456792-74.342172-163.456792-165.719322 0-91.382267 73.325006-165.724439 163.456792-165.724439s163.456792 74.342172 163.456792 165.724439C897.387347 780.306792 824.062342 854.648964 733.930555 854.648964z" fill="#999999" p-id="24534"></path><path d="M580.050885 195.84341c44.943608 0 65.705468 39.35738 66.188468 76.42153l-10.599406 115.976408c-1.570775 17.177218 11.07729 32.377408 28.259624 33.943067 0.966001 0.091074 1.926886 0.132006 2.877537 0.132006 15.962553 0 29.586852-12.180414 31.070646-28.39163l10.736529-117.486808c0.091074-0.945535 0.132006-1.89107 0.132006-2.841721 0-79.939657-55.314817-140.220578-128.665405-140.220578-17.248849 0-31.233352 13.984503-31.233352 31.233352C548.817534 181.857884 562.802036 195.84341 580.050885 195.84341z" fill="#999999" p-id="24535"></path><path d="M288.446481 201.226001c17.248849 0 31.233352-13.984503 31.233352-31.233352l0-31.233352c0-17.248849-13.984503-31.233352-31.233352-31.233352s-31.233352 13.984503-31.233352 31.233352l0 31.233352C257.213129 187.241498 271.197632 201.226001 288.446481 201.226001z" fill="#999999" p-id="24536"></path><path d="M475.847615 201.226001c17.248849 0 31.233352-13.984503 31.233352-31.233352l0-31.233352c0-17.248849-13.984503-31.233352-31.233352-31.233352-17.248849 0-31.233352 13.984503-31.233352 31.233352l0 31.233352C444.614264 187.241498 458.598766 201.226001 475.847615 201.226001z" fill="#999999" p-id="24537"></path><path d="M350.913185 544.794917l0 52.055586c0 17.248849 13.984503 31.233352 31.233352 31.233352s31.233352-13.984503 31.233352-31.233352l0-52.055586c0-17.248849-13.984503-31.233352-31.233352-31.233352S350.913185 527.546068 350.913185 544.794917z" fill="#999999" p-id="24538"></path><path d="M817.779242 706.762799l-52.615335-26.622334 0-68.898183c0-17.248849-13.979386-31.233352-31.233352-31.233352s-31.233352 13.984503-31.233352 31.233352l0 88.098477c0 0.60989 0.145309 1.178849 0.179079 1.779529 0.065492 1.12052 0.151449 2.226714 0.335644 3.329838 0.164752 0.992607 0.398066 1.948375 0.654916 2.907213 0.258896 0.973164 0.539282 1.927909 0.8913 2.871397 0.361227 0.964978 0.776689 1.888 1.227967 2.805906 0.435928 0.892323 0.89437 1.760087 1.416256 2.609431 0.524956 0.852414 1.093914 1.656733 1.695618 2.451842 0.61296 0.813528 1.246387 1.600451 1.942235 2.354628 0.686638 0.743944 1.416256 1.427512 2.170432 2.101871 0.734734 0.655939 1.476631 1.292436 2.282996 1.883907 0.908696 0.669242 1.866511 1.25048 2.845815 1.819438 0.515746 0.298805 0.951675 0.680499 1.489934 0.952698l69.746504 35.289738c4.524037 2.287089 9.333576 3.370771 14.081717 3.370771 11.397584 0 22.387893-6.26775 27.888164-17.136286C839.33314 733.340107 833.171814 714.551182 817.779242 706.762799z" fill="#999999" p-id="24539"></path><path d="M296.212352 282.626939c11.214413 18.047028 41.980113 48.589648 86.157265 48.589648 43.958164 0 75.100442-30.308283 86.573751-48.223305 9.301853-14.529925 5.067412-33.847899-9.456373-43.150776-14.539134-9.31311-33.841759-5.053086-43.149752 9.455349-0.121773 0.193405-13.379729 19.449981-33.968649 19.449981-20.008706 0-32.454156-18.138102-33.276894-19.378349-9.175987-14.417361-28.269857-18.809391-42.834574-9.750061C291.606451 248.718665 287.11209 267.976264 296.212352 282.626939z" p-id="24540"></path></svg>