<svg t="1730105241659" class="icon" viewBox="0 0 1133 1024" version="1.1" xmlns="http://www.w3.org/2000/svg" p-id="30197" width="200" height="200"><path d="M1098.130286 800.109714L873.654857 411.062857a37.924571 37.924571 0 0 0-33.060571-20.589714 37.522286 37.522286 0 0 0-32.438857 56.137143l225.718857 390.326857c17.481143 30.573714 21.833143 58.624 11.227428 76.690286-10.605714 18.102857-36.790857 28.708571-72.301714 28.708571H161.572571c-35.547429 0-61.732571-10.605714-72.338285-28.708571-10.605714-18.066286-6.875429-46.116571 11.227428-76.690286L505.746286 134.802286c19.968-34.304 44.251429-54.235429 66.084571-54.235429s37.412571 21.796571 44.909714 34.267429l81.700572 142.189714c6.217143 11.227429 18.688 18.688 32.402286 18.688a37.522286 37.522286 0 0 0 32.438857-56.100571l-81.700572-142.189715c-26.806857-46.116571-65.462857-71.68-109.714285-71.68-49.298286 0-97.28 33.645714-130.962286 91.648L35.584 799.451429c-31.817143 54.857143-35.510857 109.129143-11.190857 151.515428 24.941714 43.044571 73.545143 66.121143 137.142857 66.121143h810.642286c63.597714 0 112.237714-23.698286 137.142857-66.121143 24.978286-42.386286 20.589714-96-11.190857-150.893714zM566.857143 707.84c-20.589714 0-37.412571-16.822857-37.412572-37.412571V296.301714c0-20.589714 16.822857-37.412571 37.412572-37.412571s37.412571 16.822857 37.412571 37.412571v374.125715c0 20.589714-16.822857 37.412571-37.412571 37.412571z m-37.412572 102.875429a37.412571 37.412571 0 1 0 74.825143 0 37.412571 37.412571 0 0 0-74.825143 0z" fill="#3C7EE5" p-id="30198"></path></svg>