<svg t="1729580649939" class="icon" viewBox="0 0 1024 1024" version="1.1" xmlns="http://www.w3.org/2000/svg" p-id="6461" width="200" height="200"><path d="M323.2 326.4c-19.2 0-38.4 12.8-38.4 32s19.2 32 38.4 32 32-12.8 32-32-12.8-32-32-32zM585.6 512c-12.8 0-25.6 12.8-25.6 25.6s12.8 25.6 25.6 25.6c19.2 0 32-12.8 32-25.6s-12.8-25.6-32-25.6zM502.4 390.4c19.2 0 32-12.8 32-32s-12.8-32-32-32-38.4 12.8-38.4 32c0 20.8 19.2 32 38.4 32z" fill="#09BB07" p-id="6462"></path><path d="M800 32H224C118.4 32 32 118.4 32 224v576c0 105.6 86.4 192 192 192h576c105.6 0 192-86.4 192-192V224c0-105.6-86.4-192-192-192zM406.4 652.8c-32 0-57.6-6.4-89.6-12.8l-89.6 44.8 25.6-76.8c-64-44.8-102.4-102.4-102.4-171.2 0-121.6 115.2-216 256-217.6 126.4 0 236.8 76.8 259.2 179.2-8 0-16-1.6-24-1.6-121.6 0-217.6 89.6-219.2 201.6 0 17.6 3.2 36.8 8 52.8-8 0-16 1.6-24 1.6zM784 742.4l19.2 64-70.4-38.4c-25.6 6.4-51.2 12.8-76.8 12.8-121.6 0-217.6-83.2-217.6-185.6 0-102.4 96-185.6 217.6-185.6 115.2 0 217.6 83.2 217.6 185.6 1.6 56-36.8 107.2-89.6 147.2z" fill="#09BB07" p-id="6463"></path><path d="M726.4 512c-12.8 0-25.6 12.8-25.6 25.6s12.8 25.6 25.6 25.6c19.2 0 32-12.8 32-25.6s-12.8-25.6-32-25.6z" fill="#09BB07" p-id="6464"></path></svg>